<?xml version="1.0" encoding="utf-8"?>
<!-- Generator: Adobe Illustrator 18.1.1, SVG Export Plug-In . SVG Version: 6.00 Build 0)  -->
<svg version="1.1" id="Capa_1" xmlns="http://www.w3.org/2000/svg" xmlns:xlink="http://www.w3.org/1999/xlink" x="0px" y="0px"
	 viewBox="0 0 2536.195 2644.982" enable-background="new 0 0 2536.195 2644.982" xml:space="preserve">
<g>
	<g>
		<path fill="#62BB98" d="M252.571,1833.74c-0.553-0.946-1.047-1.913-1.495-2.901c-2.513-5.544-5.079-11.064-7.688-16.559
			c-2.616-5.498-5.367-11.169-8.254-17.019c-1.788,3.433-3.843,5.735-6.171,6.915c-2.331,1.174-5.018,2.096-8.057,2.758
			c-1.963,0.409-3.883,1.045-5.762,1.896c-1.883,0.854-3.86,1.627-5.924,2.328c-7.186,2.582-14.218,5.094-21.1,7.544
			c-6.886,2.45-13.877,5.056-20.971,7.825c-5.317,1.965-10.709,4.012-16.18,6.157c-5.471,2.145-10.822,4.292-16.051,6.439
			c-6.318,2.385-12.493,4.949-18.528,7.687c-6.041,2.738-12.173,5.396-18.395,7.982c-0.993,0.45-2.032,0.922-3.117,1.414
			c-1.091,0.494-2.085,1.062-2.983,1.709c-5.564,3-11.318,5.307-17.264,6.924c-5.949,1.618-12.018,3.234-18.206,4.844
			c-2.95,0.857-4.855,0.999-5.714,0.426c-0.854-0.574-1.42-2.477-1.693-5.707c-0.633-4.037-1.247-8.02-1.84-11.952
			c-0.592-3.933-1.207-7.915-1.838-11.946c-0.256-1.082-0.582-2.197-0.977-3.338c-0.398-1.14-0.82-2.206-1.271-3.199
			c-0.979-2.677-1.324-4.623-1.035-5.834c0.285-1.209,1.49-2.895,3.613-5.057c5.753-5.729,12.036-10.557,18.847-14.484
			c6.81-3.928,13.964-7.355,21.47-10.278c9.68-3.913,19.287-7.851,28.824-11.819c9.534-3.964,19.19-7.805,28.96-11.52
			c7.306-2.838,14.7-5.475,22.185-7.913c7.483-2.441,15.014-4.782,22.589-7.021c3.542-1.13,7.151-1.989,10.821-2.58
			c3.67-0.59,7.607-1.245,11.818-1.958c-1.745-2.789-3.299-5.428-4.66-7.91c-1.367-2.483-2.831-4.925-4.391-7.315
			c-2.838-4.681-4.508-9.41-5.006-14.196c-0.288-2.732-0.744-5.451-1.368-8.148c-0.632-2.701-1.229-5.473-1.8-8.312
			c-0.057-1.171-0.134-2.267-0.24-3.292c-0.107-1.025,0.672-1.799,2.349-2.318c1.582-0.717,2.823-0.743,3.724-0.078
			c0.896,0.668,1.812,1.505,2.75,2.513c1.919,3.185,3.794,6.271,5.63,9.259c1.829,2.984,3.66,5.975,5.495,8.963
			c5.566,9.646,10.916,19.212,16.055,28.693c5.135,9.484,10.387,19.094,15.758,28.829c2.727,4.966,5.016,10.013,6.865,15.142
			c1.845,5.127,3.197,10.48,4.061,16.057c0.553,3.329,1.326,6.613,2.324,9.863c0.992,3.247,1.967,6.445,2.919,9.594l-6.235,2.828
			C254.063,1835.329,253.116,1834.685,252.571,1833.74z"/>
		<path fill="#62BB98" d="M285.196,1844.351c1.764,4.025,3.421,7.988,4.979,11.889c1.551,3.899,3.213,7.859,4.978,11.889
			c0.902,2.256,1.267,3.953,1.088,5.095c-0.186,1.14-1.283,2.349-3.307,3.621c-2.464,1.803-4.869,3.384-7.225,4.739
			c-2.361,1.354-4.884,2.749-7.572,4.188c-9.478,4.936-18.879,9.889-28.202,14.861c-9.33,4.969-18.763,10.074-28.305,15.311
			c-0.487,0.049-0.884,0.23-1.191,0.557c-0.312,0.324-0.835,0.719-1.567,1.18c5.066,6.826,10.102,13.605,15.111,20.341
			c5.008,6.731,10.104,13.604,15.287,20.616c4.094-2.064,8.188-4.129,12.283-6.189c4.093-2.064,8.186-4.129,12.282-6.188
			c7.219-4.032,14.468-8.017,21.75-11.956c7.275-3.941,14.524-7.926,21.75-11.955c3.908-1.948,7.74-3.204,11.495-3.768
			c2.785-0.472,4.725-0.344,5.824,0.379c1.092,0.721,2.063,2.359,2.9,4.915c1.113,3.403,2.247,6.735,3.4,9.993
			c1.147,3.256,2.224,6.497,3.228,9.717c0.323,1.338,0.864,2.598,1.618,3.796c0.752,1.194,1.477,2.345,2.171,3.448
			c2.478,4.347,2.455,8.598-0.063,12.752c-2.27,3.739-5.084,6.919-8.436,9.547c-3.357,2.624-6.992,4.911-10.899,6.859
			c-15.298,8.34-30.556,16.534-45.779,24.574c-15.226,8.043-30.486,16.232-45.778,24.574c-4.467,2.294-8.83,4.848-13.09,7.66
			c-4.267,2.812-8.631,5.365-13.091,7.662c-3.798,2.131-7.54,4.035-11.229,5.719c-3.695,1.683-7.406,3.439-11.127,5.271
			c-4.097,2.06-8.246,4.034-12.457,5.913c-4.21,1.879-8.363,3.849-12.455,5.914c-1.89,0.67-3.641,1.453-5.264,2.348
			c-1.62,0.889-3.629,1.062-6.028,0.521c-1.116-3.409-2.231-6.817-3.349-10.219c-1.117-3.408-2.232-6.816-3.35-10.219
			c-0.162-0.668-0.311-1.411-0.439-2.226c-0.131-0.821-0.458-1.445-0.99-1.881c-2.15-3.016-2.873-5.895-2.17-8.649
			c0.709-2.757,2.113-5.315,4.227-7.667c4.771-5.061,9.56-10.001,14.363-14.818c4.797-4.818,9.76-9.48,14.885-13.99
			c3.882-3.213,8.023-6.012,12.432-8.4c4.402-2.387,8.774-4.818,13.125-7.299c5.197-2.758,10.336-5.607,15.42-8.549
			c5.08-2.943,10.4-5.908,15.971-8.896c-5.066-6.826-10.105-13.609-15.111-20.34c-5.01-6.736-10.106-13.609-15.287-20.616
			c-0.738,0.463-1.535,0.831-2.381,1.112c-0.854,0.279-1.798,0.614-2.83,1.012c-9.596,4.75-19.036,9.536-28.326,14.359
			c-9.293,4.82-18.586,9.639-27.875,14.463c-2.441,1.02-4.676,2.365-6.709,4.029c-2.033,1.666-4.214,3.098-6.535,4.307
			c-1.475,0.928-2.957,1.728-4.45,2.415c-1.496,0.683-3.097,1.305-4.797,1.863c-0.399-1.036-0.845-1.847-1.339-2.432
			c-0.502-0.587-0.797-1.364-0.889-2.329c-1.12-3.407-2.205-6.767-3.262-10.081c-1.063-3.314-2.24-6.619-3.539-9.907
			c-1.185-3.105-1.552-5.83-1.097-8.168c0.452-2.343,2.124-4.677,5.023-7.014c8.315-6.773,16.899-13.332,25.751-19.674
			c4.915-3.609,9.818-7.141,14.705-10.602c4.884-3.459,10.016-6.629,15.399-9.5c10.163-5.885,20.423-11.312,30.772-16.286
			c10.353-4.974,21.033-9.519,32.061-13.63l37.276-14.215c3.287-1.299,6.066-2.085,8.337-2.359
			C279.565,1843.464,282.197,1843.669,285.196,1844.351z"/>
		<path fill="#62BB98" d="M436.973,2076.132c-4.047-3.137-7.475-6.644-10.291-10.518c-2.819-3.877-5.6-7.787-8.33-11.731
			c-3.298-4.614-6.631-9.19-10.006-13.731c-3.379-4.545-6.717-9.119-10.006-13.732c-0.559-0.668-1.125-1.257-1.693-1.771
			c-0.577-0.515-1.208-1.188-1.904-2.021c-1.309,0.81-2.607,1.545-3.898,2.199c-1.294,0.659-2.369,1.486-3.229,2.491
			c-5.082,5.103-10.633,9.392-16.647,12.871c-6.019,3.476-12.044,7.03-18.071,10.66c-5.536,3.212-11.107,6.46-16.717,9.741
			c-5.618,3.279-11.189,6.528-16.718,9.74c-0.499,0.418-0.929,0.844-1.271,1.275c-0.349,0.433-0.77,0.857-1.27,1.275
			c2.789,5.032,5.515,9.979,8.171,14.843c2.649,4.864,5.374,9.81,8.171,14.843c0.806,1.305,1.633,2.459,2.471,3.459
			c0.836,0.999,1.574,2.222,2.22,3.668c1.337,2.281,1.792,4.093,1.368,5.443c-0.432,1.35-1.924,2.527-4.48,3.537
			c-2.086,0.896-3.895,0.424-5.428-1.407l-21.762-25.999c-0.281-0.336-0.52-0.701-0.711-1.105c-0.199-0.404-0.435-0.771-0.713-1.104
			c-1.563-1.528-2.771-2.717-3.618-3.562c-0.854-0.846-1.696-1.344-2.528-1.496c-0.836-0.15-1.854-0.01-3.047,0.424
			c-1.197,0.432-2.699,1.264-4.502,2.493c-7.836,4.858-15.738,9.56-23.698,14.096c-7.964,4.54-16.003,9.069-24.118,13.597
			c-2.918,1.592-5.742,3.385-8.461,5.381c-2.727,1.996-4.988,4.453-6.788,7.383c-1.444,2.337-2.357,4.801-2.739,7.394
			c-0.803,2.087,0.02,4.087,2.476,6.005c2.784,1.636,5.567,3.271,8.358,4.906c2.783,1.637,5.568,3.272,8.358,4.908
			c3.202,2.137,6.379,4.153,9.53,6.054c3.143,1.898,6.32,3.916,9.529,6.052c1.028,0.555,1.885,1.324,2.572,2.312
			c0.678,0.985,1.285,1.966,1.821,2.938c1.87,3.25,3.77,6.623,5.698,10.109c1.925,3.491,3.825,6.856,5.698,10.109
			c2.848,4.42,1.917,7.037-2.78,7.854c-1.559,0.17-3.186,0.256-4.883,0.262c-1.699,0.001-3.2-0.443-4.51-1.326
			c-7.076-3.717-14.123-7.311-21.144-10.786c-7.017-3.479-13.513-8.106-19.481-13.879c-2.424-2.222-4.678-4.66-6.756-7.312
			c-2.079-2.657-3.828-5.51-5.258-8.565c-1.814-3.868-3.717-7.663-5.699-11.384c-1.984-3.727-3.886-7.521-5.702-11.383
			c-2.374-4.535-4.122-9.164-5.247-13.888c-1.124-4.731-1.303-9.684-0.532-14.858c0.796-3.787,2.11-7.293,3.942-10.526
			c1.827-3.229,4.104-6.271,6.826-9.114c5.8-6.275,11.889-12.287,18.264-18.051c6.373-5.758,13.158-10.945,20.357-15.549
			c9.028-6.141,18.15-12.004,27.365-17.59c9.21-5.582,18.455-11.129,27.741-16.629c6.028-3.631,12.011-7.15,17.946-10.557
			c5.93-3.408,11.902-6.773,17.906-10.099c5.028-2.794,10.174-5.114,15.43-6.962c5.255-1.848,10.77-3.209,16.562-4.084
			c4.532-0.678,8.429-0.253,11.69,1.27c3.256,1.525,6.239,4.408,8.95,8.662c3.767,6.199,7.813,12.305,12.144,18.318
			c4.322,6.015,8.691,11.996,13.104,17.941c3.567,4.945,7.185,9.855,10.842,14.732c3.653,4.873,6.699,10.122,9.133,15.737
			c0.893,2.083,2.107,4.042,3.645,5.878c1.894,2.945,2.686,4.906,2.37,5.879C442.675,2073.127,440.67,2074.453,436.973,2076.132z"/>
		<path fill="#62BB98" d="M550.553,2196.573c3.865-0.045,7.344-0.117,10.436-0.213c3.086-0.098,6.276,0.027,9.58,0.365
			c5.035,0.576,9.877,1.762,14.534,3.549c4.65,1.789,8.888,4.835,12.713,9.138c2.017,2.368,4.22,4.675,6.608,6.917
			c2.388,2.244,4.742,4.531,7.064,6.859c5.076,4.445,8.283,9.371,9.62,14.775c1.329,5.406,1.223,11.076-0.315,17.015
			c-0.781,3.51-1.884,6.914-3.307,10.2c-1.431,3.288-3.097,6.53-4.997,9.727c-7.035,11.314-16.071,20.951-27.113,28.916
			c-9.507,6.677-19.288,12.731-29.344,18.166c-10.06,5.43-20.843,9.761-32.353,12.981c-7.325,2.051-14.672,3.677-22.027,4.878
			c-7.361,1.202-14.869,2.151-22.525,2.852c-8.445,0.648-16.832,0.787-25.173,0.41c-8.343-0.372-16.747-0.933-25.216-1.677
			c-2.693-0.422-4.85,0.246-6.477,2.017c-0.661,0.861-1.396,1.459-2.204,1.801c-0.81,0.336-1.715,0.805-2.722,1.405
			c-2.752,1.445-5.315,0.853-7.674-1.779c-5.365-6.581-11.038-12.576-17.019-17.986c-3.354-3.125-5.504-6.481-6.442-10.079
			c-0.939-3.596-0.975-7.391-0.104-11.379c0.731-3.816,2.044-7.4,3.931-10.748c1.881-3.347,3.859-6.555,5.94-9.617
			c4.192-5.824,8.429-11.613,12.708-17.369c4.277-5.758,8.619-11.326,13.027-16.713c7.885-9.566,15.799-18.902,23.746-28.008
			c7.944-9.107,16.551-17.914,25.816-26.418c7.197-6.529,14.115-13.138,20.755-19.824c6.632-6.688,13.4-13.275,20.298-19.765
			c1.797-1.632,3.575-3.145,5.331-4.538c1.749-1.393,3.55-2.754,5.391-4.082c2.405-1.711,5.334-3.027,8.78-3.946
			c3.229-1.356,5.914-0.396,8.054,2.892c5.655,7.624,12.562,14.154,20.718,19.59c2.025,1.285,3.098,3.545,3.219,6.785
			c0.114,3.239-0.582,6.197-2.086,8.877c-1.287,2.029-2.775,3.969-4.465,5.82c-1.695,1.851-3.27,3.725-4.723,5.621L550.553,2196.573
			z M443.493,2315.772c4.648,0.008,8.921,0.063,12.811,0.172c3.888,0.105,7.68,0.074,11.381-0.104
			c4.914-0.34,9.819-0.75,14.716-1.242c4.896-0.488,9.739-1.363,14.536-2.613c14.638-3.011,28.296-8.146,40.986-15.397
			c8.829-4.731,17.245-9.985,25.242-15.765c7.994-5.783,15.08-12.879,21.26-21.286c6.133-8.713,9.932-18.124,11.393-28.239
			c0.379-2.996,0.193-4.988-0.555-5.972c-0.752-0.987-2.556-1.757-5.419-2.308c-1.913-0.371-3.831-0.814-5.756-1.335
			c-1.933-0.52-3.896-0.729-5.894-0.618c-5.703,0.285-11.432,0.615-17.193,0.985c-5.767,0.372-11.549,1.481-17.348,3.331
			c-6.107,1.889-12.099,4.072-17.97,6.554c-5.874,2.479-11.614,5.407-17.212,8.778c-5.604,3.372-10.492,7.428-14.672,12.163
			c-4.186,4.737-8.365,9.472-12.543,14.208c-4.713,5.424-9.293,10.949-13.744,16.575c-4.454,5.622-8.949,11.214-13.484,16.774
			c-1.721,2.242-3.387,4.59-4.999,7.051C447.413,2309.944,445.567,2312.708,443.493,2315.772z"/>
		<path fill="#62BB98" d="M758.95,2312.888c-4.886-1.529-9.32-3.625-13.309-6.275c-3.994-2.653-7.962-5.351-11.896-8.098
			c-4.696-3.178-9.415-6.307-14.16-9.389c-4.75-3.084-9.47-6.21-14.161-9.389c-0.756-0.432-1.492-0.787-2.204-1.07
			c-0.72-0.281-1.546-0.693-2.487-1.231c-0.945,1.216-1.906,2.355-2.889,3.419c-0.984,1.069-1.705,2.219-2.16,3.46
			c-2.986,6.553-6.698,12.505-11.125,17.862c-4.432,5.354-8.842,10.783-13.229,16.285c-4.07,4.938-8.162,9.923-12.279,14.951
			c-4.123,5.031-8.215,10.017-12.279,14.952c-0.322,0.566-0.576,1.114-0.746,1.638c-0.178,0.527-0.424,1.072-0.747,1.639
			c4.366,3.746,8.644,7.434,12.827,11.068c4.178,3.637,8.453,7.324,12.828,11.068c1.21,0.941,2.387,1.736,3.52,2.383
			c1.133,0.646,2.25,1.535,3.359,2.666c2.047,1.672,3.104,3.213,3.178,4.627c0.065,1.415-0.924,3.038-2.969,4.874
			c-1.644,1.567-3.504,1.755-5.579,0.571l-29.452-16.795c-0.381-0.218-0.73-0.477-1.051-0.789c-0.328-0.309-0.676-0.572-1.053-0.787
			c-1.998-0.887-3.543-1.58-4.631-2.078c-1.096-0.496-2.059-0.669-2.892-0.523c-0.836,0.15-1.742,0.637-2.708,1.458
			c-0.975,0.823-2.092,2.126-3.353,3.905c-5.655,7.283-11.425,14.441-17.309,21.465c-5.885,7.029-11.843,14.075-17.874,21.143
			c-2.182,2.51-4.205,5.174-6.059,7.992c-1.861,2.821-3.125,5.911-3.793,9.283c-0.54,2.694-0.537,5.323,0.007,7.885
			c-0.026,2.237,1.442,3.825,4.411,4.768c3.179,0.564,6.358,1.127,9.545,1.691c3.18,0.562,6.357,1.127,9.543,1.688
			c3.746,0.887,7.426,1.673,11.041,2.356c3.608,0.686,7.289,1.471,11.041,2.355c1.157,0.162,2.229,0.586,3.216,1.271
			c0.979,0.688,1.89,1.396,2.731,2.121c2.885,2.396,5.84,4.896,8.861,7.493c3.02,2.602,5.973,5.095,8.863,7.493
			c4.207,3.15,4.246,5.929,0.127,8.329c-1.402,0.701-2.898,1.35-4.486,1.945c-1.593,0.592-3.154,0.699-4.69,0.327
			c-7.927-1.021-15.783-1.936-23.577-2.749c-7.789-0.818-15.488-2.895-23.092-6.229c-3.047-1.238-6.008-2.738-8.881-4.5
			c-2.873-1.768-5.506-3.833-7.909-6.2c-3.05-2.993-6.153-5.89-9.308-8.686c-3.158-2.804-6.262-5.699-9.308-8.687
			c-3.806-3.424-7.056-7.154-9.755-11.191c-2.701-4.045-4.594-8.623-5.672-13.742c-0.573-3.828-0.561-7.574,0.029-11.242
			c0.589-3.662,1.664-7.307,3.227-10.92c3.252-7.903,6.865-15.658,10.836-23.279c3.969-7.617,8.523-14.842,13.669-21.666
			c6.325-8.9,12.836-17.571,19.528-26.016c6.689-8.44,13.426-16.859,20.217-25.248c4.387-5.504,8.769-10.885,13.146-16.146
			c4.372-5.259,8.799-10.492,13.27-15.7c3.741-4.369,7.758-8.336,12.041-11.898c4.281-3.562,8.979-6.76,14.104-9.596
			c4.012-2.214,7.812-3.172,11.399-2.881c3.583,0.297,7.386,1.961,11.407,5.005c5.689,4.5,11.609,8.813,17.762,12.944
			c6.146,4.131,12.324,8.219,18.529,12.256c5.066,3.393,10.168,6.736,15.294,10.035c5.121,3.296,9.804,7.156,14.041,11.572
			c1.562,1.642,3.382,3.055,5.462,4.24c2.801,2.102,4.225,3.666,4.27,4.688C763.247,2308.086,761.831,2310.027,758.95,2312.888z"/>
		<path fill="#62BB98" d="M828.757,2352.341c-1.426,0.584-2.846,1.166-4.266,1.745c-1.428,0.584-2.79,1.306-4.094,2.173
			c-4.088,3.002-7.878,6.416-11.371,10.254c-3.498,3.836-6.453,8.076-8.869,12.719c-4.05,7.969-4.145,16.059-0.283,24.273
			c1.711,3.783,3.588,7.46,5.629,11.022c2.039,3.567,4.059,7.181,6.056,10.847c1.878,3.385,3.759,6.764,5.644,10.145
			c1.879,3.385,3.575,6.924,5.09,10.619c1.858,4.553,3.368,9.251,4.52,14.092c1.148,4.846,1.157,9.737,0.028,14.683
			c-1.691,6.837-3.972,13.536-6.845,20.108c-2.877,6.57-6.76,12.604-11.652,18.091c-1.275,1.354-2.5,2.724-3.67,4.116
			c-1.178,1.396-2.301,2.808-3.371,4.242c-6.622,7.359-14.359,12.598-23.208,15.719c-9.021,3.52-17.911,3.093-26.679-1.291
			c-3.522-1.715-7.004-3.528-10.444-5.441c-3.438-1.918-6.878-3.83-10.319-5.742c-1.719-0.958-3.51-1.887-5.371-2.783
			c-1.864-0.903-3.799-1.77-5.799-2.609c-3.928-1.885-7.553-4.051-10.881-6.508c-3.333-2.458-6.238-5.5-8.719-9.136
			c-2.45-3.149-3.904-6.704-4.361-10.668c-1.322-8.095-1.534-16.021-0.635-23.774c0.895-7.756,3.038-15.396,6.436-22.93
			c3.088-6.245,7.274-11.443,12.551-15.594c1.385-1.065,2.709-1.691,3.967-1.871c1.252-0.182,2.797,0.35,4.635,1.59
			c2.35,1.693,4.902,3.062,7.652,4.094c2.746,1.036,5.477,2.242,8.203,3.617c0.916,0.622,1.927,1.162,3.031,1.625
			c1.098,0.461,2.309,1.09,3.632,1.877c-0.876,1.521-1.536,2.951-1.979,4.296c-0.449,1.347-1.123,2.534-2.027,3.568
			c-4.045,5.142-6.818,10.634-8.326,16.481c-1.515,5.85-2.344,12.041-2.489,18.575c-0.675,8.908,1.354,16.714,6.089,23.412
			c1.42-0.581,2.799-1.063,4.142-1.444c1.335-0.38,2.517-0.945,3.539-1.698c7.802-5.681,14.509-12.12,20.12-19.312
			c5.607-7.193,9.502-15.635,11.683-25.324c1.013-5.232,1.066-10.275,0.161-15.135c-0.912-4.856-2.354-9.703-4.33-14.542
			c-1.396-3.413-3.131-6.732-5.191-9.956c-2.068-3.219-3.943-6.48-5.619-9.779c-1.566-3.011-3.053-5.932-4.456-8.763
			c-1.409-2.829-2.751-5.806-4.028-8.937c-2.429-7.145-2.849-13.861-1.27-20.152c1.576-6.287,4.508-12.305,8.807-18.047
			c1.945-2.952,4.068-5.773,6.377-8.461c2.303-2.686,4.627-5.423,6.979-8.209c3.988-4.453,8.447-8.063,13.379-10.826
			c4.925-2.762,10.212-4.964,15.852-6.609c3.042-1.076,5.973-1.322,8.791-0.73c2.811,0.593,5.642,1.719,8.48,3.38
			c3.754,2.282,7.592,4.366,11.521,6.245c3.923,1.883,7.888,3.663,11.899,5.345c3.488,1.231,6.657,3.091,9.504,5.577
			c2.844,2.491,5.197,5.307,7.064,8.442c1.863,3.14,3.208,6.532,4.037,10.179c0.824,3.647,0.967,7.243,0.426,10.783
			c-0.379,3.145-1.03,6.107-1.964,8.898c-0.938,2.787-2.291,5.462-4.069,8.015c-1.896,2.271-3.543,3.523-4.936,3.763
			c-1.398,0.242-3.458-0.329-6.178-1.707c-4.558-2.619-9.242-4.938-14.051-6.955c-1.607-0.674-2.58-1.436-2.929-2.289
			c-0.351-0.853-0.433-2.064-0.243-3.637c0.172-3.226,0.248-6.49,0.225-9.805c-0.027-3.308-0.054-6.617-0.078-9.931
			c0.051-0.685-0.041-1.31-0.271-1.88C829.394,2353.905,829.106,2353.194,828.757,2352.341z"/>
		<path fill="#62BB98" d="M907.274,2562.522c3.304,1.865,6.482,3.576,9.54,5.142c3.052,1.563,6.158,3.143,9.318,4.738
			c2.173,1.085,4.281,2.206,6.323,3.36c2.041,1.158,3.758,2.844,5.152,5.058c-1.178,3.28-2.254,5.232-3.223,5.853
			c-0.977,0.625-2.592,0.156-4.854-1.406c-4.887-3.453-10.062-5.686-15.535-6.709c-5.475-1.02-10.988-2.109-16.534-3.266
			c-8.655-1.374-17.3-2.581-25.937-3.615c-8.641-1.035-17.316-2.134-26.026-3.301c-0.626-0.182-1.306-0.379-2.035-0.59
			c-0.733-0.213-1.378-0.518-1.944-0.902c-2.744-1.475-5.43-2.932-8.066-4.377c-2.635-1.441-5.326-2.9-8.064-4.373
			c-1.133-0.779-2.23-1.496-3.284-2.14c-1.06-0.646-1.345-1.801-0.86-3.475c0.547-3.458,2.748-5.196,6.604-5.214
			c2.951-0.045,5.504,0.127,7.654,0.523c3.879,0.673,7.821,1.307,11.838,1.902c4.01,0.601,7.957,1.236,11.837,1.904
			c1.517,0.217,3.372,0.076,5.554-0.426c0.16-2.893,0.184-5.718,0.077-8.465c-0.11-2.746,0.021-5.535,0.392-8.371
			c0.34-3.52,0.613-7.004,0.822-10.453c0.203-3.446,0.825-6.942,1.854-10.494c4.864-16.012,10.017-31.828,15.452-47.451
			c5.43-15.62,11.594-31.032,18.492-46.232c2.018-4.617,3.996-9.305,5.942-14.061c1.939-4.75,4.014-9.75,6.216-14.998
			c-5.215-3.092-10.442-6.135-15.684-9.129c-5.243-2.988-10.578-6.062-15.996-9.219c0.508-0.982,1.069-2.517,1.675-4.605
			c1.112-3.072,3.343-4.123,6.685-3.154c2.293,0.666,4.682,1.416,7.156,2.244c2.474,0.834,4.887,1.475,7.246,1.932
			c5.336,1.096,10.574,2.163,15.705,3.193c5.131,1.037,10.261,2.074,15.394,3.105c5.962,1.277,11.899,2.658,17.806,4.143
			c5.901,1.488,11.839,2.869,17.807,4.145c1.458,0.422,3.172,1.146,5.142,2.168c3.155,1.594,6.261,3.173,9.319,4.738
			c3.051,1.562,6.055,3.113,9.004,4.646c0.981,0.513,1.913,1.01,2.793,1.488c0.879,0.482,1.986,1.144,3.328,1.983
			c-1.321,1.431-2.439,2.745-3.351,3.95c-0.917,1.208-1.735,2.271-2.453,3.191c-4.506-0.85-8.804-1.645-12.887-2.377
			c-4.09-0.729-8.179-1.463-12.261-2.197c-3.771,9.091-7.43,17.819-10.983,26.178c-3.558,8.36-7.022,16.801-10.396,25.327
			c-2.382,5.875-4.698,11.706-6.941,17.505c-2.248,5.797-4.561,11.634-6.941,17.504c-2.382,5.875-4.448,11.836-6.203,17.888
			c-1.756,6.058-3.51,12.108-5.264,18.161c-1.551,6.116-3.445,12.068-5.688,17.867c-2.247,5.799-5.055,11.38-8.416,16.738
			c-0.392,0.564-0.675,1.162-0.857,1.788C908.536,2560.513,908.052,2561.391,907.274,2562.522z"/>
		<path fill="#62BB98" d="M1061.688,2441.173c3.574-3.182,6.783-6.146,9.634-8.893c2.845-2.744,5.792-5.42,8.837-8.027
			c9.813-7.927,21.447-12.714,34.9-14.361c1.104-0.044,2.296,0.085,3.568,0.391c1.271,0.312,2.552,0.562,3.84,0.764
			c2.722,0.867,5.456,1.674,8.199,2.432c2.738,0.756,5.507,1.352,8.3,1.787c6.011,0.936,10.438,3.224,13.284,6.854
			c2.842,3.633,3.67,8.545,2.489,14.738c-1.003,6.442-2.923,12.412-5.758,17.91c-2.836,5.497-6.299,10.787-10.39,15.868
			c-6.775,8.183-14.017,15.854-21.73,23.011c-7.713,7.16-16.187,13.536-25.414,19.137c-0.961,0.51-1.82,1.092-2.581,1.742
			c-0.763,0.654-1.659,1.447-2.681,2.387c1.229,4.81,2.557,9.692,3.988,14.643c1.424,4.955,2.74,9.943,3.938,14.965
			c1.375,5.276,2.602,10.469,3.678,15.585c1.068,5.115,2.312,10.206,3.726,15.263c0.964,3.671,1.951,7.232,2.955,10.688
			c0.997,3.455,2.106,6.927,3.326,10.416c1.231,4.811,2.584,9.531,4.064,14.16c1.474,4.632,1.128,8.975-1.04,13.035
			c-1.111,0.043-2.102,0.055-2.975,0.031c-0.877-0.029-1.836-0.234-2.875-0.613c-3.586-1.001-7.007-1.972-10.267-2.918
			c-3.265-0.951-6.687-1.923-10.269-2.92c-2.977-0.684-4.902-2.412-5.791-5.189c-0.266-1.14-0.582-2.287-0.947-3.447
			c-0.372-1.156-0.688-2.303-0.948-3.446l-18.455-72.159c-0.15-0.463-0.261-0.809-0.334-1.042c-0.077-0.229-0.294-0.593-0.653-1.092
			c-2.252,0.31-4.333,0.975-6.251,1.997c-1.922,1.02-3.847,2.096-5.78,3.223c-1.939,1.131-3.92,2.193-5.942,3.199
			c-2.027,1.004-4.271,1.644-6.733,1.921c-0.952,4.692-1.887,9.273-2.801,13.751c-0.918,4.475-1.96,9.047-3.123,13.701
			c-1.303,5.518-2.664,11.08-4.082,16.684c-1.427,5.609-2.787,11.171-4.084,16.686c-0.867,2.727-2.124,5.165-3.781,7.33
			c-1.511,2.62-2.647,3.928-3.415,3.922c-0.771-0.012-2.606-0.571-5.512-1.683c-5.597-2.191-11.405-3.757-17.415-4.692
			c-4.543-0.49-7.99-2.017-10.339-4.579c-2.354-2.567-3.868-5.882-4.556-9.948c-0.643-2.955-1.072-5.826-1.298-8.615
			c-0.226-2.781-0.339-5.604-0.331-8.464c-0.15-10.359,0.77-20.501,2.758-30.419c1.982-9.919,3.973-19.889,5.979-29.917
			c3.085-15.573,6.895-30.872,11.437-45.894c4.534-15.017,9.604-29.899,15.2-44.648c1.74-4.125,3.537-8.243,5.389-12.357
			c1.848-4.109,3.754-8.211,5.711-12.307c0.662-1.434,1.531-2.783,2.61-4.049c1.072-1.26,2.249-2.453,3.526-3.575
			c2.333-2.276,5.489-2.773,9.471-1.494c4.158,1.529,8.255,2.771,12.286,3.728c4.026,0.959,8.155,1.987,12.388,3.084
			c3.615,0.785,6.189,1.902,7.727,3.348c1.531,1.451,2.244,3.928,2.143,7.428c-0.008,2.86-0.281,5.679-0.822,8.45
			c-0.545,2.776-1.141,5.545-1.786,8.3c-0.585,2.332-1.203,4.545-1.858,6.64C1063.364,2435.716,1062.585,2438.233,1061.688,2441.173
			z M1123.18,2427.653c-5.211,0.951-9.646,2.621-13.318,5.019s-6.926,4.917-9.754,7.555c-9.67,8.392-18.354,17.546-26.051,27.452
			c-7.703,9.908-14.639,20.541-20.805,31.896c-0.316,0.61-0.855,1.96-1.617,4.037c1.815-0.377,2.971-0.743,3.472-1.109
			c8.417-4.628,16.528-9.741,24.331-15.347c7.799-5.601,14.912-12.081,21.337-19.442c8.326-9.699,14.724-19.697,19.189-30.004
			c0.661-1.434,1.171-2.952,1.533-4.546C1121.854,2431.571,1122.413,2429.734,1123.18,2427.653z"/>
		<path fill="#62BB98" d="M1296.823,2425.313c-5.025,0.98-9.922,1.25-14.691,0.822c-4.775-0.431-9.549-0.91-14.316-1.452
			c-5.643-0.556-11.282-1.06-16.923-1.509c-5.646-0.449-11.284-0.948-16.923-1.508c-0.871-0.02-1.688,0.02-2.448,0.11
			c-0.767,0.095-1.688,0.126-2.773,0.102c-0.253,1.519-0.554,2.979-0.911,4.383c-0.356,1.409-0.441,2.763-0.25,4.07
			c0.496,7.185,0.068,14.187-1.271,21.005c-1.346,6.818-2.636,13.693-3.871,20.621c-1.227,6.281-2.449,12.613-3.672,18.996
			c-1.23,6.389-2.453,12.72-3.674,18.996c-0.014,0.651,0.023,1.254,0.125,1.795c0.095,0.548,0.137,1.145,0.123,1.797
			c5.624,1.213,11.141,2.418,16.552,3.621c5.405,1.206,10.922,2.41,16.552,3.618c1.513,0.252,2.926,0.39,4.23,0.418
			c1.303,0.028,2.709,0.278,4.223,0.743c2.597,0.495,4.26,1.348,4.998,2.555c0.732,1.213,0.635,3.111-0.287,5.7
			c-0.699,2.16-2.244,3.212-4.633,3.16l-33.896-0.735c-0.438-0.01-0.87-0.069-1.301-0.191c-0.435-0.115-0.865-0.182-1.299-0.191
			c-2.18,0.173-3.869,0.299-5.062,0.38c-1.199,0.086-2.129,0.392-2.793,0.917c-0.662,0.531-1.227,1.391-1.686,2.572
			c-0.463,1.188-0.826,2.866-1.087,5.031c-1.503,9.098-3.165,18.141-4.99,27.119c-1.825,8.982-3.708,18.016-5.643,27.105
			c-0.723,3.244-1.231,6.55-1.519,9.912c-0.293,3.365,0.068,6.686,1.088,9.969c0.809,2.625,2.062,4.936,3.763,6.928
			c1.042,1.98,3.091,2.676,6.15,2.09c3.063-1.018,6.127-2.036,9.196-3.061c3.063-1.02,6.127-2.038,9.197-3.061
			c3.715-1.005,7.324-2.068,10.829-3.189c3.498-1.117,7.108-2.18,10.829-3.189c1.094-0.409,2.238-0.547,3.433-0.414
			c1.189,0.138,2.326,0.325,3.411,0.562c3.679,0.732,7.467,1.523,11.361,2.366c3.896,0.849,7.68,1.634,11.361,2.366
			c5.201,0.766,6.561,3.189,4.082,7.262c-0.898,1.285-1.906,2.568-3.018,3.848c-1.118,1.281-2.439,2.117-3.969,2.523
			c-7.455,2.879-14.799,5.818-22.038,8.814c-7.237,2.992-14.997,4.836-23.271,5.527c-3.269,0.362-6.588,0.454-9.951,0.273
			c-3.369-0.186-6.669-0.746-9.91-1.682c-4.105-1.18-8.215-2.247-12.32-3.201c-4.111-0.962-8.22-2.029-12.32-3.203
			c-4.979-1.198-9.612-2.93-13.91-5.193c-4.301-2.269-8.146-5.394-11.535-9.379c-2.327-3.093-4.1-6.393-5.328-9.898
			c-1.229-3.502-2.02-7.217-2.367-11.139c-0.905-8.497-1.424-17.037-1.563-25.63c-0.14-8.588,0.423-17.11,1.696-25.562
			c1.32-10.838,2.912-21.563,4.773-32.177c1.859-10.608,3.771-21.22,5.744-31.831c1.236-6.928,2.525-13.748,3.867-20.459
			c1.338-6.706,2.737-13.417,4.187-20.126c1.207-5.624,2.848-11.024,4.917-16.196c2.068-5.174,4.674-10.223,7.828-15.156
			c2.473-3.859,5.358-6.512,8.65-7.964c3.292-1.446,7.428-1.796,12.414-1.036c7.146,1.246,14.405,2.219,21.783,2.92
			c7.373,0.703,14.752,1.354,22.131,1.945c6.07,0.57,12.148,1.08,18.227,1.538c6.074,0.457,12.029,1.62,17.859,3.484
			c2.154,0.699,4.43,1.075,6.822,1.126c3.464,0.514,5.461,1.209,5.988,2.086C1298.313,2419.042,1297.993,2421.425,1296.823,2425.313
			z"/>
		<path fill="#62BB98" d="M1522.138,2409.284c0.374,0.82,0.624,1.545,0.747,2.186c0.121,0.641,0.453,1.247,1.006,1.806
			c4.162,5.634,7.121,11.606,8.873,17.919c1.747,6.316,3.36,12.771,4.832,19.355c3.508,16.174,4.953,32.242,4.33,48.199
			c-0.624,15.957-2.168,32.031-4.624,48.227c-1.235,8.654-3.499,16.84-6.791,24.551c-3.296,7.719-7.128,15.2-11.503,22.453
			c-0.479,0.979-0.967,1.9-1.465,2.772s-1.008,1.685-1.527,2.446c-1.771,2.332-3.72,4.303-5.844,5.93
			c-2.129,1.617-4.725,2.498-7.794,2.64c-5.036,0.291-9.887,0.657-14.556,1.102c-4.676,0.44-9.486,1.022-14.436,1.742
			c-5.847,0.663-10.965-0.077-15.355-2.235c-4.392-2.158-8.425-5.329-12.09-9.508c-2.279-2.668-4.383-5.312-6.316-7.938
			c-1.938-2.623-3.639-5.458-5.097-8.505c-4.44-8.241-8.505-16.554-12.195-24.937c-3.694-8.383-6.52-17.153-8.475-26.312
			c-2.688-13-4.427-25.964-5.217-38.883c-0.792-12.922-0.442-25.948,1.048-39.084c1.799-18.508,9.537-34.265,23.22-47.275
			c6.885-6.838,15.188-10.293,24.909-10.369c7.676-0.347,14.762-1.473,21.262-3.369c6.965-1.762,13.445-1.715,19.436,0.135
			c5.992,1.854,11.784,4.692,17.375,8.505c1.524,1.038,3.003,2.142,4.443,3.31
			C1521.77,2405.315,1522.374,2407.024,1522.138,2409.284z M1489.555,2585.646c3.325-4.613,6.28-9.154,8.863-13.626
			c2.58-4.472,4.639-9.062,6.18-13.78c3.844-13.557,6.237-27.174,7.185-40.849c0.944-13.669,0.975-27.502,0.095-41.493
			c-0.979-13.305-3.149-26.498-6.512-39.579c-2.017-7.135-5.596-13.755-10.735-19.863c-2.946-3.863-7.19-5.821-12.729-5.881
			c-2.218-0.021-3.708,0.868-4.47,2.673c-0.768,1.805-1.561,3.447-2.383,4.932c-0.31,0.721-0.678,1.403-1.107,2.035
			c-0.434,0.637-0.804,1.312-1.107,2.035c-2.641,8.246-4.771,16.557-6.387,24.936c-1.618,8.385-2.277,16.855-1.979,25.426
			c0.104,6.399,0.317,12.772,0.641,19.124c0.319,6.358,1.067,12.63,2.242,18.819c1.972,11.572,4.503,22.871,7.591,33.898
			c3.086,11.028,6.574,22.146,10.473,33.352c0.453,1.242,1.071,2.451,1.85,3.631
			C1488.038,2582.615,1488.802,2584.021,1489.555,2585.646z"/>
		<path fill="#62BB98" d="M1606.169,2454.117c2.771-1.324,5.559-2.6,8.367-3.823c2.804-1.223,5.689-2.182,8.66-2.891
			c2.279-0.716,4.693-1.186,7.241-1.42c2.545-0.229,5.024-0.493,7.438-0.798c2.824-0.428,5.548-0.829,8.167-1.198
			c2.619-0.363,5.34-0.764,8.166-1.197c1.514-0.246,2.914-0.515,4.189-0.804c1.277-0.284,2.381,0.337,3.318,1.862
			c0.87,1.323,1.128,3.234,0.776,5.736c-0.356,2.504-1.192,4.191-2.511,5.059c-5.635,3.82-11.367,7.328-17.196,10.527
			c-2.646,1.743-5.507,3.325-8.589,4.747c-3.086,1.428-6.05,3.042-8.9,4.845c-2.023,1.549-3.838,3.203-5.448,4.957
			c-1.614,1.762-3.295,3.486-5.04,5.171c2.085,6.638,4.066,13.134,5.95,19.487c1.88,6.361,3.935,12.721,6.162,19.079
			c0.521,1.662,1.144,3.287,1.874,4.88c0.726,1.598,1.354,3.221,1.873,4.877c0.963,3.799,1.943,7.65,2.943,11.549
			c0.997,3.904,1.906,7.891,2.73,11.956c0.689,3.659,1.17,7.38,1.439,11.165c0.27,3.786,0.648,7.539,1.135,11.262
			c0.413,3.512,0.234,5.676-0.541,6.491c-0.781,0.812-2.894,1.192-6.343,1.138c-4.501,0.271-8.823,0.549-12.976,0.829
			c-4.151,0.278-8.48,0.554-12.975,0.829c-3.326,0.359-5.553,0.205-6.682-0.465c-1.129-0.672-2.66-2.641-4.598-5.902
			c-1.746-2.641-3.527-5.385-5.34-8.232c-1.812-2.849-3.586-5.59-5.33-8.236c-1.004-1.734-2.008-3.47-3.013-5.203
			c-1.004-1.736-1.905-3.503-2.696-5.305c-3.268-9.679-6.451-19.271-9.551-28.778c-3.101-9.502-6.177-19.128-9.238-28.877
			c-2.344-7.464-4.517-14.925-6.518-22.384c-1.999-7.455-3.969-14.984-5.895-22.58c-2.029-9.385-3.715-18.765-5.057-28.141
			c-1.342-9.369-1.918-18.874-1.732-28.499c0.04-5.704,1.305-10.431,3.797-14.177c2.488-3.739,6.178-6.948,11.07-9.627
			c10.127-5.685,20.506-10.311,31.131-13.878c10.628-3.562,21.33-7.04,32.113-10.426c2.07-0.65,4.141-1.13,6.211-1.438
			c2.066-0.307,4.305-0.609,6.718-0.914c2.824-0.428,5.598-0.844,8.321-1.246c2.723-0.396,5.598-0.845,8.633-1.344
			c2.824-0.428,4.633-0.483,5.416-0.164c0.787,0.324,1.573,1.386,2.368,3.186c0.586,1.867,0.629,3.278,0.132,4.23
			c-0.5,0.957-2.166,1.993-5.004,3.108c-3.461,1.317-6.99,2.597-10.583,3.837c-3.597,1.247-7.227,2.557-10.896,3.934
			c-5.467,2.176-10.918,4.4-16.354,6.674c-5.436,2.279-10.622,4.992-15.556,8.132c-3.268,1.938-4.589,4.976-3.975,9.107
			c1.109,7.168,2.169,14.353,3.18,21.552c1.008,7.201,2.068,14.387,3.182,21.554c0.486,3.724,1.143,7.446,1.971,11.169
			c0.828,3.729,1.588,7.42,2.28,11.072c0.196,0.623,0.439,1.229,0.742,1.818C1605.628,2452.579,1605.909,2453.292,1606.169,2454.117
			z"/>
		<path fill="#62BB98" d="M1863.794,2254.257c-0.895,0.633-1.814,1.209-2.76,1.74c-5.306,2.984-10.584,6.018-15.832,9.094
			c-5.25,3.082-10.662,6.313-16.239,9.697c3.575,1.482,6.048,3.33,7.423,5.549c1.373,2.221,2.523,4.816,3.445,7.787
			c0.578,1.919,1.379,3.777,2.39,5.575c1.015,1.803,1.956,3.704,2.833,5.7c3.194,6.936,6.306,13.724,9.342,20.367
			c3.039,6.648,6.239,13.386,9.613,20.214c2.417,5.128,4.924,10.321,7.535,15.585s5.213,10.41,7.805,15.434
			c2.924,6.088,6.014,12.018,9.264,17.793c3.251,5.779,6.431,11.659,9.546,17.633c0.534,0.951,1.093,1.945,1.678,2.984
			c0.587,1.043,1.239,1.984,1.962,2.823c3.471,5.284,6.268,10.816,8.393,16.599c2.129,5.787,4.264,11.693,6.402,17.719
			c1.109,2.865,1.416,4.75,0.92,5.654c-0.498,0.9-2.345,1.629-5.54,2.183c-3.967,0.98-7.881,1.938-11.747,2.868
			c-3.865,0.93-7.781,1.887-11.742,2.865c-1.055,0.348-2.139,0.771-3.24,1.262c-1.101,0.496-2.127,1.01-3.076,1.544
			c-2.583,1.208-4.492,1.72-5.724,1.536c-1.229-0.179-3.014-1.232-5.35-3.162c-6.206-5.234-11.562-11.076-16.063-17.52
			c-4.502-6.445-8.538-13.273-12.1-20.499c-4.737-9.304-9.492-18.534-14.271-27.692c-4.776-9.154-9.439-18.441-13.987-27.854
			c-3.458-7.031-6.727-14.17-9.803-21.416c-3.082-7.243-6.066-14.541-8.952-21.895c-1.433-3.432-2.603-6.953-3.508-10.558
			s-1.899-7.47-2.976-11.604c-2.625,1.98-5.121,3.758-7.476,5.328c-2.356,1.576-4.661,3.247-6.908,5.008
			c-4.417,3.233-8.983,5.306-13.708,6.217c-2.699,0.523-5.367,1.213-8,2.068c-2.636,0.863-5.346,1.698-8.125,2.514
			c-1.162,0.157-2.246,0.329-3.258,0.524c-1.013,0.196-1.85-0.515-2.514-2.14c-0.852-1.515-0.984-2.748-0.399-3.703
			c0.587-0.95,1.343-1.936,2.265-2.957c3.006-2.188,5.919-4.324,8.735-6.41c2.815-2.081,5.636-4.164,8.453-6.252
			c9.128-6.381,18.194-12.539,27.196-18.48c9.004-5.936,18.121-12,27.355-18.194c4.711-3.147,9.541-5.864,14.489-8.151
			c4.948-2.281,10.163-4.094,15.645-5.436c3.269-0.84,6.474-1.895,9.625-3.17c3.149-1.27,6.252-2.518,9.306-3.74l3.356,5.968
			C1865.248,2252.632,1864.687,2253.632,1863.794,2254.257z"/>
		<path fill="#62BB98" d="M1935.952,2231.308c0.197-4.779,0.299-9.146,0.307-13.105c0.007-3.951,0.133-7.931,0.376-11.934
			c1.126-12.562,5.775-24.253,13.945-35.067c0.737-0.825,1.657-1.593,2.763-2.294c1.107-0.695,2.178-1.441,3.219-2.229
			c2.516-1.353,4.996-2.757,7.448-4.201c2.447-1.443,4.801-3.018,7.056-4.723c4.852-3.669,9.574-5.26,14.162-4.783
			c4.588,0.484,8.693,3.306,12.323,8.461c3.933,5.199,6.889,10.729,8.868,16.59c1.979,5.861,3.373,12.028,4.18,18.5
			c1.172,10.559,1.65,21.1,1.43,31.617c-0.218,10.522-1.525,21.047-3.918,31.572c-0.303,1.046-0.48,2.068-0.543,3.066
			c-0.059,1.003-0.111,2.199-0.148,3.587c4.312,2.46,8.745,4.901,13.297,7.315c4.552,2.42,9.052,4.943,13.494,7.574
			c4.748,2.682,9.332,5.409,13.756,8.194c4.422,2.788,8.945,5.435,13.562,7.934c3.31,1.859,6.554,3.626,9.735,5.308
			c3.177,1.686,6.443,3.303,9.799,4.852c4.313,2.461,8.646,4.771,13.002,6.926c4.355,2.16,7.236,5.43,8.646,9.811
			c-0.739,0.828-1.422,1.548-2.045,2.16c-0.63,0.61-1.444,1.155-2.438,1.64c-3.215,1.882-6.291,3.665-9.238,5.351
			c-2.953,1.684-6.029,3.468-9.236,5.35c-2.562,1.662-5.145,1.847-7.758,0.552c-1.002-0.601-2.047-1.171-3.136-1.715
			c-1.089-0.536-2.134-1.107-3.136-1.716l-64.694-36.908c-0.436-0.214-0.763-0.375-0.979-0.486c-0.219-0.104-0.631-0.199-1.24-0.288
			c-1.342,1.832-2.312,3.792-2.91,5.88c-0.604,2.09-1.17,4.223-1.703,6.396c-0.535,2.181-1.148,4.343-1.833,6.495
			c-0.688,2.155-1.788,4.213-3.302,6.174c2.712,3.947,5.354,7.805,7.936,11.575c2.578,3.772,5.139,7.698,7.676,11.771
			c3.061,4.773,6.111,9.618,9.152,14.535c3.039,4.925,6.091,9.771,9.152,14.536c1.355,2.52,2.235,5.117,2.639,7.814
			c0.834,2.908,0.982,4.635,0.445,5.181c-0.545,0.546-2.224,1.478-5.043,2.792c-5.467,2.499-10.629,5.586-15.48,9.254
			c-3.512,2.923-7.007,4.34-10.48,4.246c-3.482-0.094-6.916-1.31-10.316-3.643c-2.571-1.594-4.934-3.281-7.094-5.058
			c-2.158-1.772-4.264-3.653-6.314-5.647c-7.549-7.096-14.199-14.808-19.944-23.133c-5.751-8.322-11.531-16.685-17.345-25.099
			c-9.047-13.046-17.394-26.423-25.032-40.13c-7.64-13.701-14.81-27.693-21.519-41.971c-1.755-4.119-3.466-8.273-5.135-12.465
			c-1.67-4.184-3.291-8.406-4.874-12.662c-0.571-1.472-0.935-3.035-1.095-4.689c-0.16-1.648-0.201-3.322-0.118-5.021
			c-0.013-3.26,1.823-5.874,5.512-7.846c3.991-1.926,7.731-4.007,11.222-6.238c3.488-2.229,7.1-4.479,10.83-6.759
			c3.077-2.053,5.67-3.125,7.779-3.225c2.107-0.094,4.382,1.117,6.827,3.624c2.05,1.993,3.886,4.149,5.502,6.466
			c1.616,2.322,3.19,4.676,4.722,7.055c1.271,2.043,2.432,4.025,3.48,5.953C1933.195,2226.311,1934.462,2228.622,1935.952,2231.308z
			 M1968.992,2177.714c-2.938,4.406-4.822,8.756-5.653,13.062c-0.83,4.307-1.282,8.396-1.354,12.264
			c-0.691,12.783-0.15,25.389,1.616,37.81c1.766,12.427,4.585,24.803,8.46,37.13c0.218,0.652,0.812,1.979,1.775,3.971
			c0.992-1.568,1.532-2.652,1.617-3.267c2.527-9.268,4.492-18.653,5.888-28.157c1.398-9.5,1.687-19.118,0.864-28.854
			c-1.182-12.729-3.92-24.279-8.222-34.654c-0.569-1.473-1.308-2.895-2.2-4.263
			C1970.885,2181.392,1969.954,2179.714,1968.992,2177.714z"/>
		<path fill="#62BB98" d="M2151.139,2169.542c-6.576,5.118-12.689,10.535-18.336,16.256c-5.65,5.724-12.225,10.687-19.729,14.881
			c5.616,12.873,11.386,25.67,17.308,38.385c5.924,12.721,12.455,25.201,19.605,37.448c-1.062,1.7-2.207,3.091-3.432,4.172
			c-1.221,1.085-2.598,2.095-4.129,3.022c-1.688,0.782-3.178,1.675-4.479,2.681c-1.297,1.01-2.637,2.056-4.014,3.138
			c-2.294,1.707-3.902,2.489-4.825,2.336c-0.924-0.145-2.239-1.364-3.943-3.662c-5.276-7.648-9.976-15.416-14.097-23.307
			c-4.125-7.887-8.135-15.889-12.027-24.012c-6.85-13.783-13.585-27.61-20.207-41.479c-6.621-13.863-13.129-27.769-19.52-41.713
			c-3.899-8.731-7.604-17.428-11.117-26.093c-3.515-8.657-7.068-17.354-10.658-26.095c-1.246-2.755-2.342-5.59-3.282-8.508
			c-0.941-2.912-1.958-5.826-3.054-8.74c-0.781-2.297-0.947-4.064-0.494-5.299c0.452-1.229,1.904-2.314,4.357-3.256
			c5.213-2.184,10.036-4.902,14.471-8.162c4.434-3.252,8.715-6.812,12.84-10.686c5.646-5.721,12.326-7.223,20.026-4.51
			c7.856,2.873,14.95,6.361,21.274,10.466c6.48,3.956,12.732,8.146,18.754,12.558c6.023,4.42,12.35,8.684,18.986,12.787
			c9.414,5.936,18.291,12.408,26.635,19.422c8.345,7.02,16.918,13.951,25.723,20.811c6.33,4.725,12.625,9.485,18.879,14.285
			c6.256,4.801,12.547,9.564,18.881,14.286c3.706,2.741,7.262,5.563,10.658,8.46c3.401,2.898,6.111,6.419,8.137,10.552
			c1.555,3.065,2.104,5.212,1.655,6.443c-0.457,1.231-2.138,2.55-5.046,3.952c-3.373,1.865-6.585,3.806-9.645,5.824
			c-3.062,2.016-6.201,4.035-9.412,6.055c-0.922,0.622-1.686,1.164-2.295,1.629c-0.616,0.465-1.38,1.006-2.295,1.629
			c-4.748,3.258-8.764,4.861-12.07,4.803c-3.303-0.055-7.348-1.678-12.135-4.877c-4.167-2.891-8.336-5.939-12.507-9.141
			c-4.17-3.2-8.339-6.242-12.507-9.14c-3.858-2.894-7.645-5.786-11.352-8.687
			C2159.016,2175.564,2155.157,2172.593,2151.139,2169.542z M2074.478,2114.022c4.54,13.034,9.693,25.758,15.461,38.166
			c5.768,12.414,11.608,24.9,17.531,37.461c5.654-5.104,10.96-10.095,15.925-14.971c4.963-4.869,10.119-9.859,15.463-14.969
			c-10.198-8.535-20.623-16.536-31.275-24.004C2096.93,2128.248,2085.894,2121.019,2074.478,2114.022z"/>
		<path fill="#62BB98" d="M2248.911,2060.54c-2.355-3.383-4.725-6.838-7.104-10.379c-2.379-3.533-4.748-6.994-7.104-10.379
			c-4.191-6.377-8.491-12.695-12.899-18.967c-4.408-6.267-8.556-12.61-12.443-19.035c-4.064-6.549-8.002-13.08-11.826-19.591
			c-3.821-6.508-7.611-13.056-11.369-19.657c-2.662-4.424-5.242-8.787-7.732-13.082c-2.49-4.297-5.002-8.742-7.537-13.345
			c-1.658-2.862-2.306-4.901-1.941-6.122c0.365-1.216,1.632-2.914,3.799-5.098c1.131-0.783,2.041-1.459,2.732-2.029
			c1.648-1.478,3.217-2.951,4.715-4.415c1.494-1.459,3.067-2.93,4.714-4.414c3.079-3.397,5.161-5.099,6.245-5.104
			c1.088-0.002,3.068,1.883,5.949,5.655c2.484,3.212,4.875,6.551,7.168,10.021c2.291,3.473,4.617,6.897,6.975,10.281
			c3.232,5.123,6.615,10.217,10.15,15.291c3.535,5.076,6.985,10.088,10.346,15.031c5.938,8.766,11.818,17.419,17.646,25.964
			c5.826,8.548,11.648,17.291,17.453,26.225c4.542,6.639,8.995,13.211,13.357,19.716c4.367,6.509,8.885,12.995,13.555,19.455
			c3.795,5.816,7.782,11.564,11.948,17.244c4.167,5.686,8.149,11.432,11.95,17.243c1.047,1.867,1.952,3.831,2.723,5.893
			c0.762,2.062,1.607,4.115,2.527,6.154c0.83,2.517-0.098,4.673-2.784,6.462c-4.733,2.711-8.974,5.852-12.72,9.427
			c-3.752,3.575-7.619,7.128-11.606,10.661c-1.91,1.829-4.017,2.84-6.315,3.018c-2.308,0.18-4.74-0.008-7.305-0.564
			c-7.346-1.412-14.439-3.445-21.272-6.1c-6.829-2.652-13.644-5.425-20.432-8.318c-12.228-5.05-23.87-10.883-34.934-17.503
			c-11.059-6.616-22.206-13.302-33.44-20.049c-5.965-3.634-11.846-7.47-17.639-11.522c-5.791-4.043-11.604-7.971-17.441-11.782
			c-3.092-2.03-6.064-4.044-8.918-6.038c-2.853-1.986-5.738-3.933-8.656-5.842c-4.312-2.941-8.341-6.078-12.09-9.419
			c-3.747-3.334-7.232-7.019-10.464-11.054c-2.618-3.032-3.853-5.375-3.704-7.03c0.148-1.649,1.674-3.695,4.579-6.143
			c1.647-1.478,3.361-2.779,5.14-3.895c1.781-1.111,3.576-2.345,5.4-3.699c0.823-0.739,1.539-1.426,2.145-2.06
			c0.608-0.628,1.084-1.359,1.428-2.188c3.976-8.962,11.596-11.548,22.863-7.761c3.091,0.95,6.068,2.224,8.943,3.82
			c2.873,1.602,5.596,3.225,8.164,4.866c6.36,4.201,12.566,8.421,18.619,12.66c6.054,4.245,12.261,8.466,18.619,12.659
			c6.315,3.895,12.649,7.67,19.006,11.322c6.357,3.659,12.695,7.431,19.007,11.322l20.772,13.044
			C2248.175,2061.351,2248.522,2061.063,2248.911,2060.54z"/>
		<path fill="#62BB98" d="M2262.919,1789.232c-1.492,4.896-3.553,9.348-6.172,13.356c-2.621,4.015-5.287,8.003-8.004,11.958
			c-3.141,4.721-6.234,9.463-9.279,14.232c-3.047,4.773-6.136,9.519-9.279,14.232c-0.425,0.76-0.773,1.499-1.052,2.214
			c-0.276,0.721-0.682,1.55-1.212,2.497c1.223,0.936,2.37,1.888,3.441,2.861c1.077,0.977,2.231,1.688,3.477,2.133
			c6.576,2.937,12.557,6.602,17.947,10.986c5.389,4.389,10.853,8.758,16.389,13.102c4.97,4.032,9.986,8.085,15.046,12.163
			c5.063,4.085,10.079,8.138,15.046,12.163c0.57,0.318,1.119,0.567,1.645,0.733c0.528,0.173,1.075,0.415,1.645,0.733
			c3.711-4.396,7.365-8.7,10.968-12.912c3.604-4.205,7.259-8.51,10.969-12.914c0.933-1.217,1.718-2.399,2.354-3.537
			c0.639-1.139,1.518-2.262,2.641-3.379c1.656-2.062,3.188-3.131,4.602-3.215c1.416-0.077,3.046,0.9,4.898,2.931
			c1.578,1.632,1.781,3.49,0.614,5.575l-16.567,29.58c-0.214,0.383-0.469,0.734-0.779,1.059c-0.307,0.33-0.567,0.68-0.779,1.058
			c-0.871,2.005-1.553,3.556-2.043,4.647c-0.486,1.1-0.652,2.063-0.5,2.896c0.157,0.834,0.65,1.736,1.479,2.695
			c0.831,0.968,2.143,2.076,3.932,3.322c7.326,5.598,14.529,11.314,21.6,17.142c7.074,5.83,14.165,11.733,21.28,17.71
			c2.526,2.161,5.206,4.164,8.038,5.996c2.836,1.838,5.936,3.078,9.312,3.721c2.699,0.518,5.326,0.496,7.885-0.068
			c2.236,0.009,3.813-1.473,4.732-4.449c0.539-3.183,1.079-6.365,1.616-9.557c0.539-3.184,1.079-6.367,1.616-9.557
			c0.857-3.752,1.614-7.439,2.27-11.059c0.658-3.613,1.415-7.301,2.271-11.06c0.152-1.157,0.567-2.233,1.246-3.225
			c0.681-0.985,1.38-1.901,2.099-2.747c2.374-2.904,4.852-5.879,7.425-8.92c2.578-3.041,5.048-6.012,7.424-8.92
			c3.118-4.232,5.896-4.294,8.329-0.193c0.711,1.396,1.371,2.888,1.979,4.471c0.605,1.59,0.724,3.15,0.364,4.688
			c-0.958,7.936-1.813,15.799-2.566,23.598c-0.759,7.795-2.773,15.512-6.048,23.141c-1.215,3.057-2.693,6.029-4.432,8.914
			c-1.746,2.889-3.791,5.538-6.139,7.959c-2.969,3.071-5.842,6.197-8.613,9.375c-2.777,3.178-5.65,6.305-8.613,9.374
			c-3.395,3.831-7.1,7.11-11.115,9.841c-4.023,2.732-8.588,4.66-13.699,5.779c-3.822,0.604-7.568,0.619-11.24,0.057
			c-3.668-0.559-7.32-1.606-10.945-3.141c-7.928-3.189-15.711-6.743-23.363-10.655c-7.647-3.909-14.908-8.407-21.771-13.5
			c-8.949-6.255-17.671-12.698-26.167-19.325c-8.492-6.625-16.963-13.295-25.404-20.02c-5.537-4.344-10.953-8.685-16.248-13.021
			c-5.292-4.331-10.56-8.717-15.802-13.148c-4.399-3.706-8.397-7.691-11.991-11.946c-3.596-4.255-6.829-8.927-9.705-14.028
			c-2.246-3.996-3.233-7.789-2.969-11.377c0.268-3.587,1.901-7.4,4.914-11.446c4.457-5.726,8.725-11.678,12.807-17.862
			c4.084-6.178,8.123-12.387,12.112-18.624c3.354-5.093,6.657-10.22,9.916-15.37c3.256-5.147,7.08-9.859,11.463-14.131
			c1.63-1.575,3.028-3.406,4.198-5.496c2.08-2.816,3.631-4.254,4.653-4.305C2258.085,1784.97,2260.036,1786.373,2262.919,1789.232z"
			/>
		<path fill="#62BB98" d="M2454.122,1818.345c2.362-6.785,4.718-13.275,7.07-19.48c2.354-6.198,4.726-12.449,7.119-18.754
			c0.753-1.805,1.838-3.41,3.25-4.824c1.415-1.408,2.601-2.978,3.551-4.701c1.409-2.237,2.641-4.488,3.703-6.756
			c1.064-2.26,2.199-4.557,3.401-6.881c2.359-3.961,4.944-5.355,7.751-4.184c3.777,1.106,5.045,3.992,3.807,8.652
			c-0.822,3.664-1.716,7.354-2.677,11.07c-0.968,3.72-1.959,7.368-2.978,10.945c-0.605,2.573-1.257,5.127-1.96,7.659
			s-1.36,5.085-1.96,7.66c-1.176,5.636-2.651,11.142-4.423,16.523c-1.778,5.384-4.597,10.445-8.46,15.191
			c-2.43,2.993-4.625,6.14-6.587,9.438c-1.968,3.301-3.962,6.531-5.986,9.688c-2.528,4.366-5.756,7.313-9.697,8.848
			c-3.937,1.537-8.42,1.846-13.454,0.921c-5.598-0.687-11.508-2.329-17.727-4.925c-5.613-2.343-11.159-4.713-16.635-7.119
			c-5.473-2.398-10.752-5.133-15.832-8.195c-10.96-6.457-21.806-12.926-32.525-19.402c-10.723-6.473-21.381-13.101-31.975-19.879
			c-7.118-4.383-13.982-8.953-20.594-13.715c-6.609-4.757-13.289-9.488-20.041-14.193c-2.24-1.403-4.322-3.039-6.254-4.904
			c-1.927-1.865-3.787-3.756-5.576-5.684c-0.953-1.104-1.719-2.362-2.305-3.788c-0.584-1.419-1.168-2.839-1.754-4.264
			c-0.416-1.819-0.332-3.435,0.254-4.84l16.565-26.999c3.266-4.996,7.88-5.896,13.845-2.701c5.883,3.399,11.736,6.726,17.56,9.979
			c5.827,3.259,11.64,6.684,17.436,10.279c7.64,4.837,15.198,9.581,22.675,14.23c7.479,4.654,14.996,9.498,22.548,14.531
			l68.36,44.424c1.838,1.241,3.617,2.337,5.34,3.287C2450.678,1816.44,2452.399,1817.396,2454.122,1818.345z"/>
	</g>
</g>
<g>
	<path fill="#62BB98" d="M2474.043,1661.293c-5.128,11.837-18.635,17.657-30.46,13.421c-11.343-4.064-18.079-16.285-15.36-28.345
		c37.946-116.503,58.022-238.3,59.671-362.009c2.195-164.683-27.923-324.855-89.518-476.07
		c-29.605-72.681-66.514-142.894-109.698-208.69c-42.779-65.177-92.087-126.589-146.556-182.528
		c-54.469-55.94-114.544-106.868-178.558-151.37c-64.621-44.923-133.826-83.689-205.691-115.222
		c-149.52-65.604-308.833-99.981-473.515-102.177c-164.687-2.205-324.855,27.923-476.07,89.519
		c-72.68,29.605-142.894,66.513-208.69,109.698c-65.177,42.778-126.589,92.087-182.529,146.555
		c-55.94,54.469-106.868,114.544-151.369,178.559c-44.923,64.621-83.69,133.826-115.222,205.691
		C84.872,927.843,50.495,1087.156,48.3,1251.839c-1.781,133.604,17.924,265.206,58.569,391.152
		c0.422,11.069-6.448,21.146-16.786,24.723c-10.693,3.7-22.727-0.374-29.075-9.924c-42.257-130.941-62.744-267.74-60.893-406.594
		c2.282-171.166,38.024-336.777,106.234-492.234c32.782-74.715,73.083-146.659,119.783-213.836
		c46.251-66.532,99.182-128.97,157.319-185.577c58.138-56.608,121.964-107.854,189.705-152.316
		c68.397-44.892,141.391-83.261,216.953-114.04C947.328,29.151,1113.828-2.184,1285,0.118
		c171.166,2.281,336.777,38.023,492.234,106.233c74.715,32.782,146.659,73.083,213.836,119.783
		c66.532,46.251,128.969,99.181,185.578,157.318c56.607,58.138,107.854,121.964,152.315,189.705
		c44.893,68.397,83.261,141.391,114.04,216.953c64.042,157.22,95.356,323.726,93.075,494.892
		C2534.365,1413.569,2513.493,1540.172,2474.043,1661.293z"/>
</g>
<g>
	<path fill="#FFFFFF" d="M614.006,1190.098c-1.912-5.179-4.911-9.477-9.003-12.891c-4.092-3.408-9.688-5.116-16.779-5.116
		c-7.367,0-13.301,1.503-17.803,4.502c-4.502,3.006-7.916,6.752-10.231,11.255c-2.321,4.501-3.683,9.413-4.093,14.733
		c-0.409,5.32-0.141,10.231,0.819,14.732c0.953,4.502,2.385,8.256,4.297,11.254c1.905,3.006,4.227,4.502,6.957,4.502
		c8.729,0,14.733,3.14,18.007,9.413c3.274,6.279,4.911,14.055,4.911,23.327c0,8.186-1.094,17.873-3.274,29.057
		c-2.187,11.191-5.391,22.784-9.617,34.787c-4.233,12.01-9.349,23.877-15.347,35.605c-6.004,11.734-12.827,22.241-20.462,31.513
		c-7.642,9.279-15.961,16.78-24.965,22.509c-9.003,5.729-18.557,8.594-28.647,8.594c-6.28,0-11.395-3.542-15.347-10.64
		c-3.958-7.091-6.209-19.235-6.753-36.424c-0.275-8.729,0.205-18.142,1.432-28.239c1.228-10.091,2.929-20.188,5.116-30.285
		c2.18-10.091,4.636-19.849,7.366-29.262c2.724-9.413,5.385-17.803,7.981-25.169c2.59-7.367,4.911-13.436,6.957-18.212
		c2.046-4.77,3.478-7.571,4.297-8.39c3.274-2.724,3.133-5.73-0.409-9.004c-3.549-3.274-8.799-5.384-15.756-6.344
		c-6.957-0.952-14.874-0.064-23.737,2.66c-8.869,2.732-17.259,8.735-25.169,18.008c-3.006,3.824-6.139,9.413-9.413,16.779
		c-3.274,7.367-6.279,16.103-9.003,26.193c-6.548,17.739-12.962,35.133-19.235,52.18c-6.279,17.055-12.828,32.196-19.644,45.427
		c-6.823,13.237-14.19,23.877-22.1,31.921c-7.916,8.052-16.779,12.073-26.601,12.073c-5.73,0-9.688-3.409-11.868-10.231
		c-2.187-6.817-3.07-15.757-2.661-26.807c0.409-11.05,1.842-23.736,4.297-38.06c2.456-14.324,5.455-29.058,9.004-44.2
		c3.543-15.142,7.431-30.01,11.664-44.609c4.227-14.593,8.319-27.829,12.277-39.698c3.952-11.868,7.501-21.755,10.641-29.671
		c3.133-7.91,5.384-12.546,6.753-13.915c1.906-1.905,0.748-4.226-3.479-6.957c-4.233-2.724-9.822-4.566-16.779-5.525
		c-6.957-0.953-14.464-0.473-22.509,1.432c-8.051,1.912-14.938,6.414-20.667,13.505c-0.275-1.636-0.48-2.519-0.614-2.66
		c-0.141-0.134-0.205,1.024-0.205,3.479v0.409c-1.368,1.912-2.73,4.092-4.092,6.548l-4.093,9.412
		c-5.73,4.643-13.78,8.051-24.146,10.232c-10.372,2.187-21.761,4.028-34.173,5.525c-12.418,1.502-25.035,3.069-37.856,4.706
		c-12.828,1.638-24.492,4.234-34.992,7.775c-10.506,3.549-19.1,8.531-25.783,14.938c-6.689,6.414-10.027,15.079-10.027,25.988
		c0,6.549,1.906,12.278,5.73,17.189c3.818,4.911,8.658,8.87,14.529,11.869c5.864,3.006,12.208,4.981,19.031,5.934
		c6.816,0.958,13.16,0.818,19.03-0.409c5.864-1.228,10.705-3.613,14.529-7.163c3.818-3.543,5.73-8.454,5.73-14.733
		c-4.368,0-7.571-0.408-9.617-1.227c-2.047-0.819-3.069-3.543-3.069-8.185c0-4.911,3.274-9.343,9.822-13.302
		c6.548-3.951,14.593-7.705,24.146-11.254c9.547-3.542,19.644-7.021,30.285-10.436c10.64-3.408,20.054-6.753,28.239-10.026
		c-3.274,12.552-6.414,26.876-9.413,42.972c-3.006,16.101-5.321,32.535-6.958,49.314c-1.637,16.779-2.251,33.149-1.841,49.111
		c0.409,15.96,2.385,30.284,5.934,42.972c3.542,12.686,9.003,22.854,16.37,30.489c7.367,7.641,17.189,11.459,29.466,11.459
		c10.641,0,20.117-2.11,28.443-6.344c8.32-4.226,15.961-10.09,22.918-17.598c6.957-7.5,13.16-16.229,18.621-26.191
		c5.454-9.957,10.641-20.668,15.552-32.127c0.819,11.191,2.66,21.761,5.525,31.718c2.865,9.962,7.092,18.761,12.687,26.396
		c5.589,7.642,12.751,13.647,21.486,18.008c8.729,4.368,19.235,6.548,31.513,6.548c17.457,0,33.009-4.022,46.655-12.073
		c13.64-8.044,25.642-18.621,36.015-31.718c10.366-13.096,19.235-28.034,26.601-44.813c7.367-16.78,13.301-33.827,17.803-51.157
		c4.501-17.323,7.776-34.307,9.822-50.952c2.046-16.639,3.069-31.372,3.069-44.199c0-4.912-0.205-10.296-0.614-16.166
		C617.075,1200.809,615.911,1195.284,614.006,1190.098z"/>
	<path fill="#FFFFFF" d="M1715.307,1330.881c-6.005,0-9.349-1.918-10.027-5.754c-0.684-3.837-0.55-8.639,0.409-14.401
		c0.953-5.761,1.976-12.073,3.069-18.928c1.087-6.855,0.614-13.16-1.432-18.922c-2.046-5.761-6.414-10.563-13.096-14.4
		c-6.689-3.837-17.393-5.762-32.126-5.762c-7.916,0-15.213,1.72-21.895,5.154c-6.689,3.434-13.032,8.031-19.03,13.799
		c-6.005,5.769-11.459,12.227-16.37,19.37c-4.911,7.142-9.413,14.419-13.505,21.837c0.269-4.911,0.409-9.957,0.409-15.143
		c0-5.179,0-10.64,0-16.37c0-6.548-1.432-11.933-4.297-16.165c-2.865-4.227-6.548-7.367-11.05-9.413
		c-4.502-2.046-9.278-3.274-14.324-3.684c-5.052-0.409-9.688-0.064-13.915,1.023c-4.233,1.093-7.712,2.66-10.436,4.706
		c-2.731,2.046-3.824,4.298-3.274,6.753c0.543,3.005,0.543,8.799,0,17.393c-0.55,8.594-1.573,18.621-3.07,30.08
		c-1.503,11.459-3.345,23.673-5.525,36.628c-0.27,1.602-0.556,3.169-0.834,4.754c-0.29,0.364-0.563,0.749-0.803,1.18
		c-7.367,13.646-15.213,25.31-23.532,34.992c-8.326,9.687-16.645,17.668-24.964,23.941c-8.326,6.28-16.307,10.917-23.941,13.916
		c-7.642,3.004-14.599,4.501-20.872,4.501c-9.278,0-15.961-4.093-20.054-12.278c-4.093-8.185-5.461-17.733-4.093-28.648
		c15.002-6.272,28.239-14.388,39.698-24.35c11.459-9.957,20.732-20.117,27.83-30.489c8.185-12.278,13.639-24.146,16.37-35.606
		c2.724-11.459,2.315-21.281-1.228-29.466c-2.187-6.548-6.343-11.256-12.482-14.119c-6.139-2.866-12.214-4.157-18.212-3.888
		c-9.279,0.55-19.306,3.958-30.08,10.231c-10.781,6.28-21.352,14.599-31.717,24.964c-5.461,5.73-11.05,12.349-16.779,19.85
		c-5.729,7.507-10.986,15.551-15.756,24.146c-3.899,7.015-7.334,14.264-10.321,21.733c-0.337,0.429-0.653,0.886-0.932,1.39
		c-3.549,5.461-6.753,10.301-9.617,14.529c-2.865,4.233-6.344,9.004-10.436,14.324c-4.093,5.32-8.46,10.711-13.096,16.165
		c-1.368,1.368-2.935,3.21-4.706,5.525c-1.778,2.321-3.684,4.501-5.73,6.549c-2.047,2.046-4.233,3.823-6.548,5.32
		c-2.321,1.502-4.572,2.251-6.753,2.251c-1.912,0-2.865-3.479-2.865-10.436c0-6.958,0.678-16.166,2.047-27.625
		c1.362-11.458,3.274-24.619,5.73-39.493c2.455-14.867,5.179-30.08,8.185-45.632c2.999-15.551,6.139-30.899,9.413-46.04
		c3.274-15.143,6.408-28.782,9.413-40.926c2.999-12.137,5.793-22.304,8.39-30.489c2.59-8.185,4.566-12.956,5.934-14.324
		c1.362-1.363,1.157-2.999-0.614-4.911c-1.778-1.906-4.643-3.613-8.594-5.117c-3.958-1.496-8.665-2.519-14.119-3.069
		c-5.461-0.543-10.916-0.205-16.37,1.023c-5.461,1.228-10.782,3.62-15.961,7.163c-5.186,3.548-9.413,8.594-12.687,15.142
		c-2.456,4.643-5.391,12.144-8.799,22.509c-3.415,10.373-6.893,22.509-10.436,36.424c-3.549,13.916-6.957,28.923-10.232,45.019
		c-3.274,16.101-6.004,32.33-8.185,48.701v0.408c-11.191,25.374-22.375,45.159-33.559,59.342
		c-11.191,14.189-20.738,24.697-28.648,31.513c-6.279,5.461-11.12,7.572-14.529,6.344c-3.414-1.227-5.595-4.297-6.548-9.208
		c-0.959-4.911-1.023-11.05-0.205-18.416c0.818-7.367,2.315-14.733,4.502-22.1c2.999-10.091,7.092-20.527,12.277-31.308
		c5.18-10.776,10.705-20.463,16.575-29.057c5.863-8.594,11.593-15.687,17.188-21.282c5.589-5.589,10.295-8.39,14.119-8.39
		c0.782,0,1.33,0.367,1.641,0.497c16.257,6.786,24.469,11.935,27.039,9.854c1.855-1.502-1.502-9.363-8.217-25.083
		c-0.986-2.309-2.982-6.975-7.367-10.846c-3.549-3.133-7.641-5.384-12.277-6.752c-8.735-2.181-19.031-0.819-30.899,4.092
		c-11.869,4.912-23.941,13.097-36.219,24.556c-13.096,11.733-24.287,25.169-33.559,40.311c-6.894,11.25-12.497,22.993-16.829,35.222
		c-2.879,4.242-5.531,8.21-7.931,11.874c-2.865,4.375-6.344,9.228-10.436,14.561c-4.093,5.333-8.46,10.73-13.096,16.191
		c-11.191,12.578-19.235,19.548-24.146,20.917c-2.73,0.549-4.572-0.614-5.525-3.485c-0.959-2.871-1.228-7.245-0.818-13.122
		c0.409-5.877,1.292-12.987,2.66-21.326c1.362-8.339,3.133-17.7,5.32-28.091c1.637-7.929,3.684-15.993,6.139-24.191
		c2.455-8.198,4.502-16.057,6.139-23.577c1.637-7.52,2.519-14.624,2.66-21.326c0.134-6.701-1.228-12.508-4.092-17.431
		c-2.865-4.917-7.642-8.812-14.324-11.683c-6.689-2.871-16.166-4.31-28.443-4.31c-7.098,0-13.851,1.535-20.258,4.598
		c-6.414,3.063-12.348,7.086-17.803,12.073c-5.461,4.988-10.576,10.615-15.347,16.888c-4.776,6.28-9.208,12.828-13.3,19.644
		c0-3.817,0.064-7.705,0.204-11.664c0.134-3.951,0.205-8.249,0.205-12.891c0-6.567-1.432-12.01-4.297-16.326
		s-6.548-7.52-11.05-9.605s-9.278-3.332-14.324-3.741c-5.052-0.408-9.688-0.057-13.915,1.043c-4.233,1.099-7.712,2.698-10.436,4.783
		c-2.73,2.092-3.824,4.387-3.274,6.893c0.543,3.063,0.409,8.908-0.409,17.528c-0.818,8.62-2.047,18.659-3.683,30.119
		c-1.637,11.459-3.754,23.673-6.344,36.628c-0.574,2.874-1.167,5.711-1.768,8.531c-3.091,4.739-5.91,8.989-8.46,12.751
		c-2.865,4.233-6.344,9.004-10.436,14.324c-4.092,5.32-8.46,10.711-13.096,16.165c-1.368,1.368-2.935,3.21-4.706,5.525
		c-1.778,2.321-3.684,4.501-5.73,6.549c-2.047,2.046-4.233,3.823-6.548,5.32c-2.321,1.502-4.572,2.251-6.753,2.251
		c-2.455,0-4.163-2.11-5.115-6.344c-0.959-4.226-1.368-9.617-1.228-16.165c0.134-6.548,0.748-13.71,1.841-21.485
		c1.087-7.777,2.52-15.207,4.297-22.305c1.771-7.091,3.684-13.435,5.73-19.03c2.047-5.589,4.023-9.343,5.934-11.254
		c1.906-1.905,0.678-4.226-3.683-6.957c-4.368-2.725-10.097-4.637-17.189-5.729c-7.098-1.087-14.669-0.749-22.714,1.022
		c-8.051,1.778-14.804,6.344-20.258,13.71l-1.228,1.638c-0.55,1.093-1.093,2.116-1.637,3.07c-0.55,0.958-1.093,2.116-1.637,3.478
		c-1.093,2.188-1.777,3.959-2.046,5.321c-10.641,22.099-21.013,39.429-31.103,51.975c-10.097,12.553-18.826,21.966-26.193,28.239
		c-6.279,5.461-11.12,7.572-14.529,6.344c-3.414-1.227-5.595-4.297-6.548-9.208c-0.959-4.911-1.023-11.05-0.205-18.416
		c0.818-7.367,2.315-14.733,4.502-22.1c2.999-10.091,7.092-20.527,12.277-31.308c5.18-10.776,10.705-20.463,16.575-29.057
		c5.863-8.594,11.593-15.687,17.188-21.282c5.589-5.589,10.295-8.39,14.119-8.39c2.181,0,2.999,1.708,2.456,5.117
		c-0.55,3.414-1.093,6.074-1.637,7.98c-0.55,2.73-0.07,5.256,1.432,7.571c1.496,2.321,3.747,3.754,6.753,4.298
		c2.724,0.549,5.25,0.14,7.571-1.228c2.315-1.363,3.747-3.543,4.297-6.549c2.999-12.821,2.865-23.461-0.409-31.921
		c-1.368-4.093-3.824-7.706-7.367-10.846c-3.549-3.133-7.641-5.384-12.277-6.752c-8.735-2.181-19.031-0.819-30.899,4.092
		c-11.869,4.912-23.941,13.097-36.219,24.556c-13.096,11.733-24.287,25.169-33.559,40.311c-9.279,15.143-16.23,31.174-20.872,48.089
		c-5.73,20.737-6.548,38.61-2.455,53.612c2.455,9.278,7.367,17.125,14.733,23.531c7.367,6.414,16.23,9.618,26.601,9.618
		c7.91,0,15.756-1.7,23.532-5.115c7.776-3.409,15.347-7.98,22.714-13.71c7.366-5.729,14.458-12.412,21.281-20.054
		c6.817-7.636,13.364-15.821,19.644-24.556c-0.275,9.823,0.269,18.897,1.637,27.216c1.362,8.326,3.542,14.804,6.548,19.439
		c2.999,5.186,7.226,9.279,12.687,12.278c5.454,3.004,11.459,4.501,18.007,4.501c19.913,0,42.562-14.593,67.937-43.791
		c0.72-0.84,1.417-1.676,2.122-2.513c-0.77,2.268-1.546,4.475-2.33,6.606c-3.409,9.279-6.753,15.961-10.027,20.054
		c-2.455,3.006-2.999,5.934-1.637,8.799c1.369,2.865,3.958,5.256,7.776,7.161c3.824,1.913,8.46,3.21,13.915,3.888
		c5.461,0.678,10.979,0.409,16.575-0.819c5.589-1.227,10.909-3.683,15.961-7.366c5.046-3.684,9.068-8.933,12.073-15.757
		c6.273-14.732,11.459-27.759,15.552-39.084c4.092-11.318,7.226-22.163,9.413-32.535c1.087-1.087,2.315-3.133,3.683-6.139
		c4.092-9.004,8.799-18.417,14.119-28.239c5.321-9.823,10.846-18.756,16.575-26.807c5.73-8.044,11.318-14.663,16.779-19.849
		c5.454-5.179,10.232-7.776,14.324-7.776c3.542,0,5.179,2.66,4.911,7.98c-0.275,5.32-1.432,12.278-3.478,20.872
		c-2.047,8.594-4.707,18.416-7.981,29.466c-3.274,11.05-6.343,22.304-9.208,33.763c-2.865,11.459-5.052,22.714-6.548,33.764
		c-1.503,11.05-1.637,20.871-0.409,29.466c1.228,8.594,4.297,15.552,9.208,20.872c4.911,5.32,12.547,7.98,22.918,7.98
		c6.817,0,13.365-1.362,19.644-4.098c6.273-2.737,12.278-6.222,18.008-10.462c5.73-4.234,11.114-8.953,16.165-14.145
		c5.046-5.192,9.752-10.25,14.119-15.174c2.373-2.772,4.662-5.528,6.875-8.27c0.093,6.773,0.931,13.111,2.538,19
		c2.455,9.278,7.367,17.125,14.733,23.531c7.367,6.414,16.23,9.618,26.601,9.618c9.004,0,17.867-2.18,26.601-6.548
		c8.729-4.361,17.253-10.09,25.578-17.189c8.32-7.091,16.23-15.346,23.737-24.76c7.5-9.413,14.388-19.165,20.667-29.262
		c0,11.19,0.544,21.487,1.637,30.899c1.087,9.413,2.999,17.598,5.729,24.556c2.724,6.957,6.343,12.418,10.845,16.37
		c4.502,3.958,10.161,5.934,16.984,5.934c19.913,0,42.562-14.593,67.937-43.791c3.305-3.856,6.44-7.677,9.436-11.472
		c0.265,3.805,0.792,7.563,1.613,11.267c1.912,8.594,5.73,16.441,11.459,23.532c7.092,8.735,15.552,14.324,25.374,16.779
		c9.822,2.456,19.913,3.684,30.284,3.684c12.547,0,25.234-2.59,38.061-7.775c12.821-5.181,24.894-12.073,36.219-20.668
		c9.133-6.935,17.545-14.59,25.262-22.947c-1.217,4.1-2.475,8.004-3.777,11.693c-3.274,9.279-6.548,15.961-9.822,20.054
		c-2.455,3.006-2.999,5.934-1.637,8.799c1.369,2.865,3.959,5.256,7.776,7.161c3.824,1.913,8.46,3.21,13.915,3.888
		s10.98,0.409,16.575-0.819c5.589-1.227,10.909-3.683,15.961-7.366c5.046-3.684,9.068-8.933,12.073-15.757
		c6.273-14.183,11.184-26.806,14.733-37.855c3.543-11.05,6.273-21.621,8.186-31.718c1.637-0.819,3.542-3.543,5.73-8.185
		c4.093-9.004,8.799-18.417,14.119-28.239c5.32-9.823,10.845-18.756,16.575-26.807c5.729-8.044,11.318-14.663,16.779-19.849
		c5.454-5.179,10.232-7.776,14.324-7.776c1.906,0,2.519,1.502,1.842,4.501c-0.684,3.005-1.912,6.894-3.684,11.664
		c-1.777,4.776-3.753,10.098-5.934,15.96c-2.187,5.87-3.684,11.734-4.502,17.598c-0.819,5.87-0.755,11.325,0.205,16.371
		c0.953,5.052,3.747,9.073,8.39,12.072c4.911,3.274,10.365,5.052,16.37,5.32c5.998,0.275,11.798-0.338,17.393-1.841
		c5.589-1.496,10.909-3.613,15.961-6.344c5.045-2.724,9.137-5.384,12.277-7.98c3.133-2.59,4.975-4.84,5.525-6.753
		C1719.125,1331.841,1718.031,1330.881,1715.307,1330.881z M1439.264,1317.99c10.775-13.505,21.62-24.076,32.536-31.718
		c0,4.642-1.093,10.168-3.274,16.575c-2.187,6.414-6.005,13.577-11.459,21.487c-4.911,7.366-11.05,14.669-18.416,21.895
		c-7.367,7.233-15.827,13.576-25.374,19.03C1419.825,1347.252,1428.483,1331.495,1439.264,1317.99z"/>
	<path fill="#FFFFFF" d="M2187.167,1275.223c-2.73-2.999-4.778-6.344-6.139-10.026c-1.369-3.684-2.047-7.297-2.047-10.846
		c0-3.542,0.678-6.816,2.047-9.822c1.361-2.999,3.543-5.179,6.547-6.548c2.725-1.362,3.613-3.274,2.66-5.73
		c-0.958-2.455-3.068-4.975-6.343-7.571c-3.274-2.59-7.303-4.771-12.073-6.548c-4.777-1.771-9.618-2.724-14.529-2.865
		c-4.911-0.134-9.553,1.024-13.915,3.479c-4.367,2.456-7.775,6.689-10.231,12.688c-1.913,4.642-2.935,8.939-3.069,12.891
		c-0.141,3.958,0.205,7.711,1.022,11.254c0.819,3.549,1.977,6.958,3.479,10.231c1.497,3.274,2.929,6.689,4.298,10.232
		l-51.231,75.116c-2.083,0.815-3.699,2.235-4.832,4.28c-3.549,5.461-6.753,10.301-9.618,14.529
		c-2.865,4.233-6.344,9.004-10.436,14.324c-4.093,5.32-8.46,10.711-13.097,16.165c-1.368,1.368-2.935,3.21-4.706,5.525
		c-1.777,2.321-3.684,4.501-5.729,6.549c-2.046,2.046-4.234,3.823-6.548,5.32c-2.321,1.502-4.572,2.251-6.752,2.251
		c-2.456,0-3.888-3.543-4.298-10.64c-0.409-7.092,0-16.096,1.228-27.011c1.227-10.909,2.929-22.778,5.115-35.605
		c2.18-12.822,4.565-25.028,7.161-36.628c2.59-11.594,5.251-21.621,7.981-30.081c2.724-8.454,5.045-13.639,6.957-15.551
		c2.18-2.18,0.678-4.771-4.501-7.776c-5.186-2.999-11.805-4.912-19.849-5.73c-8.051-0.819-16.307,0.408-24.761,3.683
		c-8.46,3.274-14.873,9.963-19.235,20.054c-1.912,4.368-3.958,10.373-6.139,18.007c-3.548,7.917-7.846,17.125-12.891,27.625
		c-5.052,10.506-10.711,21.76-16.984,33.763c-6.823,13.372-13.646,25.169-20.463,35.401c-6.823,10.231-13.371,18.896-19.644,25.988
		c-3.824,4.642-6.689,6.413-8.594,5.32c-1.912-1.087-3.069-3.952-3.479-8.594c-0.409-4.637-0.275-10.436,0.409-17.394
		c0.678-6.958,1.702-14.119,3.069-21.485c1.087-6.817,2.794-15.411,5.115-25.783c2.315-10.366,4.911-20.668,7.776-30.9
		c2.865-10.231,6.139-19.708,9.823-28.443c3.684-8.728,7.571-14.866,11.664-18.416c2.455-1.905,1.905-4.636-1.638-8.185
		c-3.548-3.543-8.594-6.069-15.142-7.572c-6.548-1.496-14.119-1.291-22.714,0.614c-8.594,1.913-16.85,7.367-24.761,16.371
		c-5.461,6.003-10.576,14.803-15.346,26.396c-4.776,11.6-8.799,24.288-12.073,38.061c-1.842,7.752-3.325,15.615-4.476,23.581
		c-2.594,3.959-4.988,7.559-7.182,10.796c-2.865,4.233-6.344,9.004-10.437,14.324c-4.092,5.32-8.46,10.711-13.096,16.165
		c-1.369,1.368-2.935,3.21-4.706,5.525c-1.778,2.321-3.684,4.501-5.73,6.549c-2.046,2.046-4.234,3.823-6.548,5.32
		c-2.322,1.502-4.572,2.251-6.753,2.251c-1.912,0-2.865-3.479-2.865-10.436c0-6.958,0.677-16.166,2.046-27.625
		c1.362-11.458,3.274-24.619,5.73-39.493c2.455-14.867,5.18-30.08,8.186-45.632c2.999-15.551,6.138-30.899,9.412-46.04
		c3.274-15.143,6.408-28.782,9.413-40.926c2.999-12.137,5.793-22.304,8.39-30.489c2.59-8.185,4.566-12.956,5.934-14.324
		c1.363-1.363,1.158-2.999-0.614-4.911c-1.777-1.906-4.642-3.613-8.594-5.117c-3.958-1.496-8.665-2.519-14.119-3.069
		c-5.461-0.543-10.916-0.205-16.37,1.023c-5.461,1.228-10.781,3.62-15.961,7.163c-5.186,3.548-9.413,8.594-12.687,15.142
		c-2.455,4.643-5.391,12.278-8.799,22.918c-3.414,10.64-6.957,23.059-10.64,37.242c-3.684,14.19-7.162,29.467-10.436,45.837
		c-3.274,16.37-5.934,32.81-7.98,49.315c-2.047,16.511-3.274,32.331-3.684,47.473c-0.409,15.143,0.48,28.584,2.66,40.312
		c2.181,11.734,5.864,21.146,11.05,28.239c5.179,7.097,12.277,10.64,21.281,10.64c19.913,0,42.562-14.593,67.936-43.791
		c4.498-5.247,8.691-10.431,12.619-15.564c0.22,6.778,0.849,13.198,1.904,19.248c2.046,11.734,5.934,21.352,11.664,28.853
		c5.729,7.507,13.915,11.254,24.555,11.254c16.37,0,33.01-9.272,49.93-27.829c13.096-14.183,26.601-34.237,40.516-60.161
		c-1.636,15.284-2.187,29.403-1.636,42.358c0.544,12.961,2.865,22.579,6.957,28.853c2.999,5.186,7.226,9.279,12.687,12.278
		c5.455,3.004,11.459,4.501,18.008,4.501c19.913,0,42.562-14.593,67.936-43.791c4.911-5.73,9.477-11.389,13.71-16.984
		c4.205-5.561,7.87-10.587,11-15.072c1.501-0.63,2.948-1.809,4.342-3.549l60.979-87.99c5.455,5.186,9.412,12.418,11.869,21.69
		c2.455,9.279,3.682,19.235,3.682,29.876c0,10.64-1.227,21.485-3.682,32.535c-2.457,11.05-5.8,21.077-10.027,30.081
		c-4.233,9.004-9.208,16.37-14.938,22.099c-5.729,5.73-12.008,8.594-18.825,8.594c-5.73,0-11.191-0.953-16.37-2.865
		c-5.186-1.905-10.098-6.683-14.733-14.324c-1.637-2.724-3.824-4.227-6.549-4.501c-2.723-0.269-5.179,0.204-7.365,1.432
		c-2.18,1.228-3.748,3.14-4.706,5.729c-0.953,2.596-0.614,5.256,1.022,7.98c6.28,10.373,14.387,18.007,24.351,22.918
		c9.956,4.911,19.983,7.092,30.08,6.548c29.735-1.637,52.793-8.453,69.165-20.463c16.37-12.003,26.665-26.736,30.899-44.199
		c4.226-17.458,2.66-36.629-4.707-57.501C2217.042,1314.716,2204.623,1294.598,2187.167,1275.223z"/>
	<path fill="#FFFFFF" d="M2406.728,1203.603c-0.141-2.455-1.163-4.706-3.07-6.752c-1.912-2.047-4.501-3.07-7.776-3.07l-45.018,4.092
		c2.455-9.004,4.635-16.37,6.548-22.1c1.905-5.729,3.543-9.272,4.911-10.64c1.363-1.363,1.158-2.999-0.614-4.911
		c-1.777-1.906-4.642-3.613-8.594-5.117c-3.958-1.496-8.665-2.519-14.119-3.069c-5.461-0.543-10.916-0.205-16.37,1.023
		c-5.461,1.228-10.781,3.62-15.961,7.163c-5.187,3.548-9.413,8.594-12.687,15.142c-1.368,3.006-2.935,6.894-4.706,11.664
		c-1.779,4.776-3.754,10.301-5.934,16.574l-47.065,4.093c-3.274,0.55-5.589,2.321-6.957,5.32c-1.363,3.006-1.906,6.209-1.638,9.618
		c0.275,3.414,1.299,6.688,3.07,9.822c1.778,3.14,4.163,4.847,7.163,5.115l37.242-5.32c-3.549,13.915-7.028,29.198-10.437,45.837
		c-3.414,16.645-6.139,33.29-8.185,49.93c-2.046,16.645-3.338,32.74-3.887,48.292c-0.544,15.551,0.274,29.332,2.455,41.334
		c2.18,12.01,5.793,21.626,10.845,28.853c5.045,7.232,12.208,10.845,21.485,10.845c19.913,0,42.563-14.593,67.936-43.791
		c4.912-5.73,9.477-11.389,13.711-16.984c4.226-5.589,7.91-10.64,11.05-15.142c3.134-4.502,5.589-8.115,7.366-10.845
		c1.772-2.725,2.794-4.227,3.07-4.502c1.363-2.455,1.701-5.045,1.023-7.776c-0.685-2.724-2.252-4.771-4.707-6.139
		c-2.456-1.636-5.052-2.11-7.776-1.432c-2.73,0.683-4.777,2.251-6.139,4.706c-3.548,5.461-6.752,10.301-9.617,14.529
		c-2.865,4.233-6.344,9.004-10.437,14.324c-4.092,5.32-8.46,10.711-13.096,16.165c-1.369,1.368-2.935,3.21-4.706,5.525
		c-1.779,2.321-3.684,4.501-5.729,6.549c-2.047,2.046-4.234,3.823-6.549,5.32c-2.321,1.502-4.572,2.251-6.753,2.251
		c-1.912,0-2.935-3.134-3.069-9.413c-0.141-6.272,0.409-14.662,1.638-25.169c1.227-10.5,2.929-22.573,5.115-36.219
		c2.18-13.639,4.635-27.829,7.366-42.562c2.724-14.733,5.659-29.396,8.799-43.995c3.134-14.592,6.203-28.168,9.208-40.72
		l52.793-7.775c3.274-0.269,5.59-1.497,6.958-3.684C2406.249,1208.38,2406.862,1206.058,2406.728,1203.603z"/>
</g>
</svg>
